#!OML:ASF C:\ViconDB\ViconDB\414\Spring2016\042216\male.ASF
:FULLY-SPECIFIED
:DEGREES
824
root 15.251 17.5453 8.66151 -179.726 23.5479 -178.047
lowerback -1.16606 -3.00358 3.92666
upperback -0.422428 -4.03751 0.0756969
thorax -0.0467893 -2.02105 -2.15123
lowerneck -3.9853 -0.395119 -7.51009
upperneck 5.20695 -0.446329 7.55158
head 2.46176 -0.141677 3.86162
rclavicle 8.69776e-014 -1.40143e-014
rhumerus -26.6921 2.52855 -96.1131
rradius 27.1309
rwrist 27.829
rhand 13.6871 -17.6937
rfingers 7.12502
rthumb 38.6145 -43.323
lclavicle 8.69776e-014 -1.40143e-014
lhumerus -33.9608 13.9067 88.2458
lradius 34.925
lwrist -10.4794
lhand -6.95761 11.5484
lfingers 7.12502
lthumb 18.9116 40.6491
rfemur -7.73875 -2.37137 24.6755
rtibia 17.9677
rfoot -11.4651 3.71917
rtoes 3.61243
lfemur -9.59114 3.97104 -14.8226
ltibia 48.7977
lfoot -24.1305 15.8029
ltoes -15.4094
825
root 15.2487 17.5497 8.61583 -179.755 24.1394 -178.094
lowerback -1.13354 -2.96416 3.95937
upperback -0.39818 -3.98463 0.0762859
thorax -0.0387787 -1.99426 -2.16769
lowerneck -3.98093 -0.22906 -7.45537
upperneck 5.1608 -0.219422 7.40065
head 2.42322 -0.0328643 3.8029
rclavicle 3.96358e-014 -3.47873e-016
rhumerus -26.5385 2.45015 -96.0816
rradius 27.0911
rwrist 27.9523
rhand 13.9249 -17.8073
rfingers 7.12502
rthumb 38.8387 -43.3733
lclavicle 3.96358e-014 -3.47873e-016
lhumerus -33.9127 13.734 88.5418
lradius 34.9802
lwrist -9.91102
lhand -7.43686 11.5038
lfingers 7.12502
lthumb 18.4506 40.6488
rfemur -7.43322 -2.28894 24.5714
rtibia 17.6143
rfoot -11.273 4.1753
rtoes 3.67113
lfemur -10.1527 3.53651 -14.4128
ltibia 48.5712
lfoot -24.285 16.2771
ltoes -15.6469
826
root 15.2471 17.558 8.57436 -179.742 24.7539 -177.997
lowerback -1.02769 -2.93818 4.06626
upperback -0.384138 -3.94572 0.135078
thorax -0.0841317 -1.97516 -2.16117
lowerneck -3.96184 -0.047957 -7.44529
upperneck 5.14827 0.029579 7.2202
head 2.3921 0.0848818 3.7435
rclavicle 6.72001e-014 6.41081e-015
rhumerus -26.427 2.61064 -96.0839
rradius 27.1157
rwrist 27.7263
rhand 13.8345 -17.8872
rfingers 7.12502
rthumb 38.7534 -43.4774
lclavicle 6.72001e-014 6.41081e-015
lhumerus -34.0064 13.5852 88.8144
lradius 35.2456
lwrist -9.76499
lhand -7.42416 12.0104
lfingers 7.12502
lthumb 18.4628 41.1542
rfemur -7.17081 -2.34896 24.6231
rtibia 17.3402
rfoot -11.0469 4.80231
rtoes 3.17626
lfemur -10.7268 3.11257 -13.8075
ltibia 48.1807
lfoot -24.4364 16.4369
ltoes -15.5448
827
root 15.2433 17.5635 8.52711 -179.794 25.3861 -178.029
lowerback -0.98636 -2.90256 4.13564
upperback -0.341816 -3.89854 0.107147
thorax -0.0672013 -1.95106 -2.22737
lowerneck -3.97856 0.120921 -7.34648
upperneck 5.11187 0.257341 7.10145
head 2.36191 0.19677 3.68801
rclavicle -3.29563e-014 -3.47873e-015
rhumerus -26.3121 2.65055 -96.1173
rradius 27.1459
rwrist 27.821
rhand 13.9265 -17.6949
rfingers 7.12502
rthumb 38.8403 -43.2605
lclavicle -3.29563e-014 -3.47873e-015
lhumerus -34.0431 13.1193 89.1457
lradius 35.3901
lwrist -9.30474
lhand -7.59995 12.4386
lfingers 7.12502
lthumb 18.2937 41.5984
rfemur -6.91698 -2.71453 24.5167
rtibia 17.1153
rfoot -11.1632 5.6042
rtoes 4.38813
lfemur -11.1629 2.61604 -13.3339
ltibia 47.5793
lfoot -24.554 16.4364
ltoes -15.3917
828
root 15.2411 17.567 8.48304 -179.834 25.9962 -178.086
lowerback -0.9615 -2.89135 4.11221
upperback -0.30184 -3.88388 0.089456
thorax -0.0386849 -1.94287 -2.23247
lowerneck -3.99693 0.300042 -7.21065
upperneck 5.10188 0.498122 6.93657
head 2.33987 0.314609 3.60987
rclavicle 9.64572e-014 -5.91384e-015
rhumerus -26.2154 2.88465 -96.2363
rradius 27.2686
rwrist 27.6115
rhand 14.1557 -17.52
rfingers 7.12502
rthumb 39.0563 -43.0239
lclavicle 9.64572e-014 -5.91384e-015
lhumerus -34.0655 13.1256 89.2937
lradius 35.4928
lwrist -9.38554
lhand -7.6696 12.5457
lfingers 7.12502
lthumb 18.2267 41.7118
rfemur -6.71178 -2.93682 24.3952
rtibia 16.9191
rfoot -10.8889 6.41539
rtoes 3.87828
lfemur -11.5886 2.05118 -12.8696
ltibia 46.8307
lfoot -24.5713 16.4052
ltoes -15.6445
829
root 15.2376 17.5726 8.43889 -179.83 26.6229 -178.085
lowerback -0.933213 -2.86457 4.13529
upperback -0.279519 -3.84742 0.115425
thorax -0.0288171 -1.92399 -2.21793
lowerneck -3.93795 0.488245 -7.24991
upperneck 4.97236 0.753991 6.89098
head 2.26469 0.438595 3.60498
rclavicle -7.87684e-015 -8.94531e-015
rhumerus -26.1494 3.11878 -96.2697
rradius 27.3706
rwrist 27.4306
rhand 14.1876 -17.382
rfingers 7.12502
rthumb 39.0864 -42.8772
lclavicle -7.87684e-015 -8.94531e-015
lhumerus -34.1546 12.8143 89.6306
lradius 35.6168
lwrist -9.38106
lhand -7.76877 12.6517
lfingers 7.12502
lthumb 18.1313 41.8267
rfemur -6.56146 -2.97751 24.3308
rtibia 16.8127
rfoot -10.8143 7.02765
rtoes 3.81144
lfemur -11.9882 1.49836 -12.3477
ltibia 45.9059
lfoot -24.5484 16.3624
ltoes -15.847
830
root 15.2336 17.5741 8.39559 -179.836 27.2472 -178.142
lowerback -0.791223 -2.8413 4.18563
upperback -0.325156 -3.80934 0.057384
thorax -0.159822 -1.90879 -2.29577
lowerneck -3.9133 0.680907 -7.06045
upperneck 4.97767 1.00912 6.6804
head 2.23971 0.56302 3.50025
rclavicle -6.38503e-014 4.57205e-015
rhumerus -26.1591 3.06172 -96.333
rradius 27.4241
rwrist 27.7704
rhand 14.5496 -16.831
rfingers 7.12502
rthumb 39.4275 -42.2272
lclavicle -6.38503e-014 4.57205e-015
lhumerus -34.2628 12.2273 89.9284
lradius 35.5443
lwrist -9.21476
lhand -7.96866 12.6852
lfingers 7.12502
lthumb 17.939 41.8778
rfemur -6.41512 -2.92588 24.2147
rtibia 16.6718
rfoot -10.7485 7.48507
rtoes 3.78342
lfemur -12.3526 0.964145 -11.8635
ltibia 44.8165
lfoot -24.3869 16.2036
ltoes -15.779
831
root 15.2286 17.5757 8.35604 -179.82 27.8923 -178.132
lowerback -0.689448 -2.84097 4.18739
upperback -0.294812 -3.80483 0.075624
thorax -0.184178 -1.90656 -2.27344
lowerneck -3.96102 0.854303 -7.01676
upperneck 4.88089 1.24748 6.58294
head 2.19726 0.679981 3.46253
rclavicle -6.91848e-014 -2.78299e-015
rhumerus -26.0511 3.46432 -96.4598
rradius 27.5357
rwrist 27.3777
rhand 14.4415 -16.4726
rfingers 7.12502
rthumb 39.3257 -41.8986
lclavicle -6.91848e-014 -2.78299e-015
lhumerus -34.2895 12.1426 90.1574
lradius 35.5848
lwrist -9.32434
lhand -7.51337 12.7388
lfingers 7.12502
lthumb 18.377 41.8908
rfemur -6.26877 -2.57361 24.188
rtibia 16.5264
rfoot -10.7038 7.66994
rtoes 3.65946
lfemur -12.6286 0.269734 -11.2761
ltibia 43.5639
lfoot -24.2724 16.055
ltoes -15.7342
832
root 15.2232 17.585 8.30883 -179.867 28.6064 -178.198
lowerback -0.66803 -2.8129 4.17543
upperback -0.244027 -3.76784 0.0840659
thorax -0.140041 -1.88647 -2.2589
lowerneck -3.94756 1.0875 -7.03546
upperneck 4.77122 1.56583 6.49647
head 2.13353 0.835221 3.44116
rclavicle -2.90505e-014 -1.88845e-015
rhumerus -26.0144 4.0128 -96.5677
rradius 27.7073
rwrist 26.7918
rhand 14.5856 -16.4115
rfingers 7.12502
rthumb 39.4614 -41.7977
lclavicle -2.90505e-014 -1.88845e-015
lhumerus -34.3371 12.4951 90.2883
lradius 35.3998
lwrist -9.99246
lhand -7.39429 12.3247
lfingers 7.12502
lthumb 18.4916 41.4657
rfemur -6.06333 -2.24368 24.0514
rtibia 16.3751
rfoot -10.6647 7.95202
rtoes 4.10945
lfemur -12.749 -0.458925 -10.8215
ltibia 42.143
lfoot -24.0898 16.1561
ltoes -16.7149
833
root 15.2185 17.5868 8.26723 -179.91 29.2323 -178.283
lowerback -0.598204 -2.80702 4.11481
upperback -0.205736 -3.75822 0.0455662
thorax -0.137784 -1.88147 -2.26213
lowerneck -4.04488 1.29831 -6.72612
upperneck 4.75913 1.84934 6.17844
head 2.12661 0.974415 3.27915
rclavicle -2.02745e-014 1.98785e-015
rhumerus -25.9503 4.31915 -96.6916
rradius 27.8148
rwrist 26.7415
rhand 14.8974 -16.1973
rfingers 7.12502
rthumb 39.7551 -41.4968
lclavicle -2.02745e-014 1.98785e-015
lhumerus -34.2635 12.5489 90.4074
lradius 35.013
lwrist -10.449
lhand -6.80363 12.0632
lfingers 7.12502
lthumb 19.0597 41.1493
rfemur -5.87236 -1.75056 23.9259
rtibia 16.1945
rfoot -10.646 7.98123
rtoes 3.97967
lfemur -12.8526 -1.33557 -10.3609
ltibia 40.572
lfoot -23.5718 16.4476
ltoes -16.1445
834
root 15.2103 17.5942 8.22382 -179.78 29.8297 -178.274
lowerback -0.58782 -2.79587 4.17207
upperback -0.262268 -3.74122 0.0608087
thorax -0.203161 -1.87497 -2.27594
lowerneck -3.99218 1.49224 -6.67173
upperneck 4.69554 2.11116 6.01104
head 2.07729 1.10043 3.21433
rclavicle -6.71488e-014 5.46658e-015
rhumerus -25.9735 4.4656 -96.6754
rradius 27.8785
rwrist 26.7975
rhand 14.7294 -16.1401
rfingers 7.12502
rthumb 39.5969 -41.4865
lclavicle -6.71488e-014 5.46658e-015
lhumerus -34.3152 12.66 90.5754
lradius 34.7225
lwrist -11.0373
lhand -6.70401 11.708
lfingers 7.12502
lthumb 19.1555 40.7847
rfemur -5.8227 -1.42741 23.8721
rtibia 15.9905
rfoot -10.5502 8.18058
rtoes 3.86345
lfemur -13.0399 -2.4359 -9.76618
ltibia 38.8532
lfoot -23.2085 16.4718
ltoes -15.4713
835
root 15.2054 17.5998 8.17581 -179.785 30.438 -178.371
lowerback -0.765362 -2.74124 4.20606
upperback -0.135401 -3.6819 -0.039567
thorax 0.0220365 -1.83968 -2.41176
lowerneck -4.10954 1.63374 -6.5465
upperneck 4.59132 2.30258 5.98476
head 2.05132 1.19881 3.18604
rclavicle -6.56455e-014 -1.20265e-014
rhumerus -25.7795 4.58949 -96.7675
rradius 27.9726
rwrist 26.6762
rhand 14.8521 -16.1358
rfingers 7.12502
rthumb 39.7124 -41.4479
lclavicle -6.56455e-014 -1.20265e-014
lhumerus -34.1382 12.3818 90.7847
lradius 34.4223
lwrist -11.5709
lhand -7.70531 11.8582
lfingers 7.12502
lthumb 18.1924 41.0274
rfemur -5.68348 -1.23817 23.7083
rtibia 15.8115
rfoot -10.4859 8.53414
rtoes 3.64301
lfemur -13.0577 -3.34687 -9.31989
ltibia 37.026
lfoot -22.344 16.7657
ltoes -15.5913
